2Varta-Bold240.ufo
<glyph name="zero" format="1">
  <advance width="1136"/>
  <unicode hex="0030"/>
  <outline>
    <contour>
      <point x="539" y="1243" type="line" smooth="yes"/>
      <point x="161" y="1243"/>
      <point x="130" y="1038"/>
      <point x="130" y="659" type="curve" smooth="yes"/>
      <point x="130" y="596" type="line" smooth="yes"/>
      <point x="130" y="243"/>
      <point x="133" y="-16"/>
      <point x="539" y="-16" type="curve" smooth="yes"/>
      <point x="597" y="-16" type="line" smooth="yes"/>
      <point x="976" y="-16"/>
      <point x="1006" y="189"/>
      <point x="1006" y="568" type="curve" smooth="yes"/>
      <point x="1006" y="630" type="line" smooth="yes"/>
      <point x="1006" y="984"/>
      <point x="1006" y="1243"/>
      <point x="600" y="1243" type="curve" smooth="yes"/>
    </contour>
    <contour>
      <point x="823" y="1109"/>
      <point x="855" y="1004"/>
      <point x="855" y="697" type="curve" smooth="yes"/>
      <point x="855" y="568" type="line" smooth="yes"/>
      <point x="855" y="254"/>
      <point x="843" y="116"/>
      <point x="607" y="116" type="curve" smooth="yes"/>
      <point x="539" y="116" type="line" smooth="yes"/>
      <point x="330" y="116"/>
      <point x="282" y="223"/>
      <point x="282" y="529" type="curve" smooth="yes"/>
      <point x="282" y="659" type="line" smooth="yes"/>
      <point x="282" y="973"/>
      <point x="294" y="1109"/>
      <point x="531" y="1109" type="curve" smooth="yes"/>
      <point x="600" y="1109" type="line" smooth="yes"/>
    </contour>
  </outline>
</glyph>
<glyph name="four" format="1">
  <advance width="965"/>
  <unicode hex="0034"/>
  <outline>
    <contour>
      <point x="531" y="1227" type="line"/>
      <point x="43" y="405" type="line"/>
      <point x="43" y="303" type="line"/>
      <point x="613" y="303" type="line"/>
      <point x="613" y="0" type="line"/>
      <point x="760" y="0" type="line"/>
      <point x="760" y="304" type="line"/>
      <point x="899" y="306" type="line"/>
      <point x="899" y="431" type="line"/>
      <point x="760" y="431" type="line"/>
      <point x="760" y="1227" type="line"/>
    </contour>
    <contour>
      <point x="613" y="431" type="line"/>
      <point x="225" y="431" type="line"/>
      <point x="356" y="656"/>
      <point x="482" y="872"/>
      <point x="613" y="1096" type="curve"/>
    </contour>
  </outline>
</glyph>
<glyph name="eight" format="1">
  <advance width="983"/>
  <unicode hex="0038"/>
  <outline>
    <contour>
      <point x="530" y="699" type="line"/>
      <point x="176" y="636"/>
      <point x="102" y="577"/>
      <point x="102" y="354" type="curve" smooth="yes"/>
      <point x="102" y="301" type="line" smooth="yes"/>
      <point x="102" y="35"/>
      <point x="263" y="-16"/>
      <point x="480" y="-16" type="curve" smooth="yes"/>
      <point x="701" y="-16"/>
      <point x="881" y="34"/>
      <point x="881" y="301" type="curve" smooth="yes"/>
      <point x="881" y="346" type="line" smooth="yes"/>
      <point x="881" y="566"/>
      <point x="821" y="628"/>
      <point x="533" y="699" type="curve"/>
    </contour>
    <contour>
      <point x="692" y="523"/>
      <point x="733" y="483"/>
      <point x="733" y="353" type="curve" smooth="yes"/>
      <point x="733" y="301" type="line" smooth="yes"/>
      <point x="733" y="146"/>
      <point x="649" y="115"/>
      <point x="518" y="115" type="curve" smooth="yes"/>
      <point x="465" y="115" type="line" smooth="yes"/>
      <point x="332" y="115"/>
      <point x="250" y="151"/>
      <point x="250" y="301" type="curve" smooth="yes"/>
      <point x="250" y="353" type="line" smooth="yes"/>
      <point x="250" y="485"/>
      <point x="290" y="527"/>
      <point x="490" y="590" type="curve"/>
    </contour>
    <contour>
      <point x="636" y="1116"/>
      <point x="719" y="1093"/>
      <point x="719" y="966" type="curve" smooth="yes"/>
      <point x="719" y="831"/>
      <point x="671" y="776"/>
      <point x="503" y="721" type="curve"/>
      <point x="275" y="799"/>
      <point x="259" y="816"/>
      <point x="259" y="950" type="curve" smooth="yes"/>
      <point x="259" y="1090"/>
      <point x="341" y="1116"/>
      <point x="493" y="1116" type="curve" smooth="yes"/>
    </contour>
    <contour>
      <point x="493" y="1243" type="line" smooth="yes"/>
      <point x="280" y="1243"/>
      <point x="118" y="1171"/>
      <point x="118" y="964" type="curve" smooth="yes"/>
      <point x="118" y="953" type="line" smooth="yes"/>
      <point x="118" y="747"/>
      <point x="190" y="673"/>
      <point x="434" y="623" type="curve"/>
      <point x="435" y="623" type="line"/>
      <point x="551" y="627" type="line"/>
      <point x="561" y="630"/>
      <point x="574" y="636"/>
      <point x="584" y="640" type="curve"/>
      <point x="791" y="711"/>
      <point x="860" y="788"/>
      <point x="860" y="953" type="curve" smooth="yes"/>
      <point x="860" y="966" type="line" smooth="yes"/>
      <point x="860" y="1174"/>
      <point x="740" y="1243"/>
      <point x="503" y="1243" type="curve" smooth="yes"/>
    </contour>
  </outline>
</glyph>
<glyph name="anusvara-deva" format="1">
  <advance width="540"/>
  <unicode hex="0902"/>
  <outline>
    <contour>
      <point x="185" y="1656"/>
      <point x="148" y="1621"/>
      <point x="148" y="1536" type="curve" smooth="yes"/>
      <point x="148" y="1452"/>
      <point x="185" y="1416"/>
      <point x="271" y="1416" type="curve" smooth="yes"/>
      <point x="356" y="1416"/>
      <point x="393" y="1452"/>
      <point x="393" y="1536" type="curve" smooth="yes"/>
      <point x="393" y="1621"/>
      <point x="356" y="1656"/>
      <point x="271" y="1656" type="curve" smooth="yes"/>
    </contour>
    <contour>
      <point x="270" y="1167" type="move" name="_top"/>
    </contour>
  </outline>
</glyph>
<glyph name="aa-deva" format="1">
  <advance width="1959"/>
  <unicode hex="0906"/>
  <outline>
    <component base="a-deva"/>
    <component base="aaMatra-deva" xOffset="1398"/>
    <contour>
      <point x="1688" y="1167" type="move" name="top"/>
    </contour>
    <contour>
      <point x="1622" y="27" type="move" name="bottom"/>
    </contour>
  </outline>
</glyph>
<glyph name="rVocalic-deva" format="1">
  <advance width="1533"/>
  <unicode hex="090B"/>
  <outline>
    <contour>
      <point x="-19" y="1287" type="line"/>
      <point x="-19" y="1104" type="line"/>
      <point x="1542" y="1104" type="line"/>
      <point x="1542" y="1287" type="line"/>
    </contour>
    <contour>
      <point x="963" y="924" type="line"/>
      <point x="1046" y="785" type="line"/>
      <point x="1057" y="851" type="line"/>
      <point x="777" y="632" type="line"/>
      <point x="855" y="471" type="line"/>
      <point x="1216" y="756" type="line" smooth="yes"/>
      <point x="1269" y="783"/>
      <point x="1283" y="824"/>
      <point x="1283" y="859" type="curve" smooth="yes"/>
      <point x="1283" y="938"/>
      <point x="1195" y="990"/>
      <point x="1069" y="1017" type="curve"/>
    </contour>
    <contour>
      <point x="1160" y="103" type="line"/>
      <point x="1333" y="177"/>
      <point x="1417" y="299"/>
      <point x="1417" y="425" type="curve" smooth="yes"/>
      <point x="1417" y="550"/>
      <point x="1328" y="696"/>
      <point x="1145" y="864" type="curve"/>
      <point x="1049" y="781" type="line"/>
      <point x="1144" y="650"/>
      <point x="1213" y="537"/>
      <point x="1213" y="455" type="curve" smooth="yes"/>
      <point x="1213" y="387"/>
      <point x="1163" y="328"/>
      <point x="1046" y="270" type="curve"/>
    </contour>
    <contour>
      <point x="149" y="225" type="line"/>
      <point x="275" y="74" type="line"/>
      <point x="771" y="470" type="line"/>
      <point x="714" y="635" type="line"/>
    </contour>
    <contour>
      <point x="210" y="949"/>
      <point x="123" y="899"/>
      <point x="52" y="844" type="curve"/>
      <point x="154" y="673" type="line"/>
      <point x="240" y="729"/>
      <point x="290" y="752"/>
      <point x="339" y="752" type="curve" smooth="yes"/>
      <point x="424" y="752"/>
      <point x="499" y="684"/>
      <point x="671" y="505" type="curve"/>
      <point x="772" y="599" type="line"/>
      <point x="526" y="919"/>
      <point x="421" y="949"/>
      <point x="310" y="949" type="curve" smooth="yes"/>
    </contour>
    <contour>
      <point x="668" y="1148" type="line"/>
      <point x="668" y="3" type="line"/>
      <point x="878" y="3" type="line"/>
      <point x="878" y="1148" type="line"/>
    </contour>
    <contour>
      <point x="770" y="1167" type="move" name="top"/>
    </contour>
    <contour>
      <point x="770" y="27" type="move" name="bottom"/>
    </contour>
  </outline>
</glyph>
<glyph name="eShort-deva" format="1">
  <advance width="1059"/>
  <unicode hex="090E"/>
  <outline>
    <component base="e-deva"/>
    <component base="eShortMatra-deva" xOffset="560"/>
    <contour>
      <point x="46" y="106" type="move" name="top"/>
    </contour>
    <contour>
      <point x="46" y="3" type="move" name="bottom"/>
    </contour>
  </outline>
</glyph>
<glyph name="nga-deva" format="1">
  <advance width="1174"/>
  <unicode hex="0919"/>
  <outline>
    <contour>
      <point x="851" y="1287" type="line"/>
      <point x="851" y="1104" type="line"/>
      <point x="1193" y="1104" type="line"/>
      <point x="1193" y="1287" type="line"/>
    </contour>
    <component base="dda-deva"/>
    <component base="anusvara-deva" xOffset="772" yOffset="-953"/>
    <contour>
      <point x="1000" y="1167" type="move" name="top"/>
    </contour>
    <contour>
      <point x="551" y="-14" type="move" name="bottom"/>
    </contour>
    <contour>
      <point x="537" y="1167" type="move" name="topcandrabindu"/>
    </contour>
  </outline>
</glyph>
<glyph name="nukta-deva" format="1">
  <advance width="545"/>
  <unicode hex="093C"/>
  <outline>
    <contour>
      <point x="198" y="131"/>
      <point x="166" y="100"/>
      <point x="166" y="27" type="curve" smooth="yes"/>
      <point x="166" y="-45"/>
      <point x="198" y="-76"/>
      <point x="271" y="-76" type="curve" smooth="yes"/>
      <point x="345" y="-76"/>
      <point x="376" y="-45"/>
      <point x="376" y="27" type="curve" smooth="yes"/>
      <point x="376" y="100"/>
      <point x="345" y="131"/>
      <point x="271" y="131" type="curve" smooth="yes"/>
    </contour>
    <contour>
      <point x="272" y="27" type="move" name="_nukta"/>
    </contour>
  </outline>
</glyph>
<glyph name="rrVocalicMatra-deva" format="1">
  <advance width="544"/>
  <unicode hex="0944"/>
  <outline>
    <contour>
      <point x="327" y="96"/>
      <point x="314" y="97"/>
      <point x="298" y="97" type="curve" smooth="yes"/>
      <point x="147" y="97"/>
      <point x="-51" y="22"/>
      <point x="-51" y="-136" type="curve" smooth="yes"/>
      <point x="-51" y="-211"/>
      <point x="-33" y="-331"/>
      <point x="236" y="-381" type="curve"/>
      <point x="335" y="-304" type="line"/>
      <point x="182" y="-278"/>
      <point x="149" y="-219"/>
      <point x="149" y="-167" type="curve" smooth="yes"/>
      <point x="149" y="-91"/>
      <point x="241" y="-71"/>
      <point x="343" y="-66" type="curve"/>
      <point x="343" y="95" type="line"/>
    </contour>
    <contour>
      <point x="119" y="-272"/>
      <point x="29" y="-409"/>
      <point x="29" y="-526" type="curve" smooth="yes"/>
      <point x="29" y="-664"/>
      <point x="136" y="-764"/>
      <point x="295" y="-764" type="curve" smooth="yes"/>
      <point x="403" y="-764"/>
      <point x="510" y="-729"/>
      <point x="590" y="-670" type="curve"/>
      <point x="523" y="-530" type="line"/>
      <point x="456" y="-572"/>
      <point x="378" y="-602"/>
      <point x="312" y="-602" type="curve" smooth="yes"/>
      <point x="246" y="-602"/>
      <point x="219" y="-575"/>
      <point x="219" y="-523" type="curve" smooth="yes"/>
      <point x="219" y="-465"/>
      <point x="271" y="-426"/>
      <point x="409" y="-410" type="curve"/>
      <point x="387" y="-258" type="line"/>
    </contour>
    <contour>
      <point x="270" y="27" type="move" name="_bottom"/>
    </contour>
  </outline>
</glyph>
<glyph name="aiMatra-deva" format="1">
  <advance width="540"/>
  <unicode hex="0948"/>
  <outline>
    <contour>
      <point x="306" y="1251" type="line"/>
      <point x="206" y="1688"/>
      <point x="97" y="1806"/>
      <point x="-192" y="1806" type="curve" smooth="yes"/>
      <point x="-298" y="1806"/>
      <point x="-382" y="1790"/>
      <point x="-424" y="1780" type="curve"/>
      <point x="-389" y="1621" type="line"/>
      <point x="-335" y="1630"/>
      <point x="-239" y="1644"/>
      <point x="-177" y="1644" type="curve" smooth="yes"/>
      <point x="-27" y="1644"/>
      <point x="42" y="1643"/>
      <point x="186" y="1307" type="curve"/>
      <point x="219" y="1327" type="line"/>
      <point x="54" y="1501"/>
      <point x="-4" y="1545"/>
      <point x="-134" y="1545" type="curve" smooth="yes"/>
      <point x="-209" y="1545"/>
      <point x="-304" y="1534"/>
      <point x="-387" y="1513" type="curve"/>
      <point x="-350" y="1367" type="line"/>
      <point x="-272" y="1383"/>
      <point x="-209" y="1393"/>
      <point x="-139" y="1393" type="curve" smooth="yes"/>
      <point x="18" y="1393"/>
      <point x="99" y="1326"/>
      <point x="195" y="1207" type="curve"/>
    </contour>
    <contour>
      <point x="223" y="1167" type="move" name="_top"/>
    </contour>
  </outline>
</glyph>
<glyph name="ghha-deva" format="1">
  <advance width="1147"/>
  <unicode hex="095A"/>
  <outline>
    <component base="ga-deva"/>
    <component base="nukta-deva" xOffset="58" yOffset="65"/>
    <contour>
      <point x="78" y="106" type="move" name="top"/>
    </contour>
    <contour>
      <point x="79" y="3" type="move" name="bottom"/>
    </contour>
    <contour>
      <point x="54" y="106" type="move" name="topcandrabindu"/>
    </contour>
  </outline>
</glyph>
<glyph name="rha-deva" format="1">
  <advance width="1082"/>
  <unicode hex="095D"/>
  <outline>
    <component base="ddha-deva"/>
    <component base="nukta-deva" xOffset="-276" yOffset="55"/>
    <contour>
      <point x="72" y="106" type="move" name="top"/>
    </contour>
    <contour>
      <point x="62" y="3" type="move" name="bottom"/>
    </contour>
    <contour>
      <point x="48" y="106" type="move" name="topcandrabindu"/>
    </contour>
  </outline>
</glyph>
<glyph name="fa-deva" format="1">
  <advance width="1608"/>
  <unicode hex="095E"/>
  <outline>
    <component base="pha-deva"/>
    <component base="nukta-deva" xOffset="78" yOffset="60"/>
    <contour>
      <point x="74" y="106" type="move" name="top"/>
    </contour>
    <contour>
      <point x="75" y="3" type="move" name="bottom"/>
    </contour>
  </outline>
</glyph>
<glyph name="rrVocalic-deva" format="1">
  <advance width="1482"/>
  <unicode hex="0960"/>
  <outline>
    <contour>
      <point x="946" y="950" type="line"/>
      <point x="1028" y="811" type="line"/>
      <point x="1039" y="877" type="line"/>
      <point x="732" y="633" type="line"/>
      <point x="810" y="471" type="line"/>
      <point x="1198" y="782" type="line" smooth="yes"/>
      <point x="1252" y="808"/>
      <point x="1265" y="850"/>
      <point x="1265" y="885" type="curve"/>
      <point x="1265" y="963"/>
      <point x="1177" y="1016"/>
      <point x="1051" y="1043" type="curve"/>
    </contour>
    <contour>
      <point x="-19" y="1287" type="line"/>
      <point x="-19" y="1104" type="line"/>
      <point x="1502" y="1104" type="line"/>
      <point x="1502" y="1287" type="line"/>
    </contour>
    <contour>
      <point x="165" y="949"/>
      <point x="78" y="899"/>
      <point x="7" y="844" type="curve"/>
      <point x="109" y="673" type="line"/>
      <point x="195" y="729"/>
      <point x="245" y="752"/>
      <point x="294" y="752" type="curve" smooth="yes"/>
      <point x="379" y="752"/>
      <point x="454" y="684"/>
      <point x="626" y="505" type="curve"/>
      <point x="727" y="599" type="line"/>
      <point x="481" y="919"/>
      <point x="376" y="949"/>
      <point x="265" y="949" type="curve" smooth="yes"/>
    </contour>
    <contour>
      <point x="623" y="1148" type="line"/>
      <point x="623" y="3" type="line"/>
      <point x="833" y="3" type="line"/>
      <point x="833" y="1148" type="line"/>
    </contour>
    <contour>
      <point x="103" y="225" type="line"/>
      <point x="229" y="74" type="line"/>
      <point x="725" y="470" type="line"/>
      <point x="668" y="635" type="line"/>
    </contour>
    <contour>
      <point x="1044" y="791" type="line"/>
      <point x="1217" y="491" type="line"/>
      <point x="1223" y="538" type="line"/>
      <point x="1108" y="509"/>
      <point x="978" y="446"/>
      <point x="978" y="322" type="curve" smooth="yes"/>
      <point x="978" y="244"/>
      <point x="999" y="126"/>
      <point x="1267" y="76" type="curve"/>
      <point x="1366" y="153" type="line"/>
      <point x="1211" y="179"/>
      <point x="1178" y="239"/>
      <point x="1178" y="291" type="curve" smooth="yes"/>
      <point x="1178" y="367"/>
      <point x="1274" y="388"/>
      <point x="1381" y="402" type="curve"/>
      <point x="1394" y="514" type="line"/>
      <point x="1192" y="860" type="line"/>
    </contour>
    <contour>
      <point x="1150" y="185"/>
      <point x="1059" y="47"/>
      <point x="1059" y="-71" type="curve" smooth="yes"/>
      <point x="1059" y="-212"/>
      <point x="1171" y="-315"/>
      <point x="1338" y="-311" type="curve" smooth="yes"/>
      <point x="1444" y="-308"/>
      <point x="1546" y="-274"/>
      <point x="1625" y="-216" type="curve"/>
      <point x="1558" y="-76" type="line"/>
      <point x="1492" y="-117"/>
      <point x="1417" y="-146"/>
      <point x="1352" y="-148" type="curve" smooth="yes"/>
      <point x="1279" y="-150"/>
      <point x="1250" y="-122"/>
      <point x="1250" y="-68" type="curve" smooth="yes"/>
      <point x="1250" y="-9"/>
      <point x="1302" y="31"/>
      <point x="1442" y="47" type="curve"/>
      <point x="1420" y="199" type="line"/>
    </contour>
    <contour>
      <point x="727" y="1167" type="move" name="top"/>
    </contour>
    <contour>
      <point x="727" y="27" type="move" name="bottom"/>
    </contour>
  </outline>
</glyph>
<glyph name="llVocalic-deva" format="1">
  <advance width="1289"/>
  <unicode hex="0961"/>
  <outline>
    <contour>
      <point x="985" y="174"/>
      <point x="894" y="36"/>
      <point x="894" y="-81" type="curve" smooth="yes"/>
      <point x="894" y="-222"/>
      <point x="1006" y="-325"/>
      <point x="1173" y="-321" type="curve" smooth="yes"/>
      <point x="1279" y="-318"/>
      <point x="1381" y="-284"/>
      <point x="1460" y="-226" type="curve"/>
      <point x="1393" y="-86" type="line"/>
      <point x="1327" y="-127"/>
      <point x="1252" y="-156"/>
      <point x="1187" y="-158" type="curve" smooth="yes"/>
      <point x="1114" y="-160"/>
      <point x="1085" y="-132"/>
      <point x="1085" y="-79" type="curve" smooth="yes"/>
      <point x="1085" y="-20"/>
      <point x="1137" y="20"/>
      <point x="1277" y="36" type="curve"/>
      <point x="1255" y="188" type="line"/>
    </contour>
    <contour>
      <point x="-19" y="1287" type="line"/>
      <point x="-19" y="1104" type="line"/>
      <point x="1308" y="1104" type="line"/>
      <point x="1308" y="1287" type="line"/>
    </contour>
    <contour>
      <point x="855" y="1163" type="line"/>
      <point x="855" y="828" type="line"/>
      <point x="1065" y="828" type="line"/>
      <point x="1065" y="1163" type="line"/>
    </contour>
    <contour>
      <point x="666" y="943"/>
      <point x="557" y="775"/>
      <point x="557" y="574" type="curve" smooth="yes"/>
      <point x="557" y="529"/>
      <point x="562" y="485"/>
      <point x="577" y="446" type="curve"/>
      <point x="758" y="465" type="line"/>
      <point x="753" y="497"/>
      <point x="750" y="527"/>
      <point x="750" y="557" type="curve" smooth="yes"/>
      <point x="750" y="668"/>
      <point x="799" y="751"/>
      <point x="898" y="751" type="curve" smooth="yes"/>
      <point x="1002" y="751"/>
      <point x="1039" y="667"/>
      <point x="1039" y="563" type="curve" smooth="yes"/>
      <point x="1039" y="532"/>
      <point x="1037" y="507"/>
      <point x="1029" y="475" type="curve"/>
      <point x="1057" y="527" type="line"/>
      <point x="943" y="508"/>
      <point x="814" y="437"/>
      <point x="814" y="311" type="curve" smooth="yes"/>
      <point x="814" y="233"/>
      <point x="836" y="115"/>
      <point x="1104" y="65" type="curve"/>
      <point x="1203" y="142" type="line"/>
      <point x="1049" y="168"/>
      <point x="1014" y="228"/>
      <point x="1014" y="280" type="curve" smooth="yes"/>
      <point x="1014" y="357"/>
      <point x="1104" y="375"/>
      <point x="1214" y="393" type="curve"/>
      <point x="1228" y="450"/>
      <point x="1235" y="506"/>
      <point x="1235" y="560" type="curve" smooth="yes"/>
      <point x="1235" y="792"/>
      <point x="1118" y="943"/>
      <point x="889" y="943" type="curve" smooth="yes"/>
    </contour>
    <contour>
      <point x="167" y="940"/>
      <point x="54" y="815"/>
      <point x="54" y="597" type="curve" smooth="yes"/>
      <point x="54" y="334"/>
      <point x="214" y="132"/>
      <point x="308" y="24" type="curve"/>
      <point x="456" y="151" type="line"/>
      <point x="345" y="293"/>
      <point x="260" y="423"/>
      <point x="260" y="567" type="curve" smooth="yes"/>
      <point x="260" y="707"/>
      <point x="329" y="746"/>
      <point x="408" y="746" type="curve" smooth="yes"/>
      <point x="512" y="746"/>
      <point x="583" y="659"/>
      <point x="660" y="536" type="curve"/>
      <point x="679" y="671" type="line"/>
      <point x="607" y="860"/>
      <point x="504" y="940"/>
      <point x="358" y="940" type="curve" smooth="yes"/>
    </contour>
    <contour>
      <point x="929" y="1167" type="move" name="top"/>
    </contour>
    <contour>
      <point x="723" y="31" type="move" name="bottom"/>
    </contour>
  </outline>
</glyph>
<glyph name="six-deva" format="1">
  <advance width="941"/>
  <unicode hex="096C"/>
  <outline>
    <contour>
      <point x="324" y="825"/>
      <point x="91" y="748"/>
      <point x="91" y="463" type="curve" smooth="yes"/>
      <point x="91" y="238"/>
      <point x="237" y="110"/>
      <point x="474" y="110" type="curve" smooth="yes"/>
      <point x="702" y="109"/>
      <point x="908" y="203"/>
      <point x="907" y="352" type="curve" smooth="yes"/>
      <point x="907" y="457"/>
      <point x="781" y="519"/>
      <point x="710" y="545" type="curve"/>
      <point x="561" y="460" type="line"/>
      <point x="709" y="249" type="line"/>
      <point x="745" y="361" type="line"/>
      <point x="669" y="311"/>
      <point x="585" y="290"/>
      <point x="493" y="290" type="curve" smooth="yes"/>
      <point x="347" y="290"/>
      <point x="298" y="358"/>
      <point x="298" y="459" type="curve" smooth="yes"/>
      <point x="298" y="597"/>
      <point x="411" y="641"/>
      <point x="546" y="641" type="curve" smooth="yes"/>
      <point x="582" y="641"/>
      <point x="617" y="640"/>
      <point x="646" y="637" type="curve"/>
      <point x="652" y="814" type="line"/>
      <point x="616" y="820"/>
      <point x="571" y="824"/>
      <point x="524" y="824" type="curve" smooth="yes"/>
    </contour>
    <contour>
      <point x="693" y="267" type="line"/>
      <point x="937" y="-86" type="line"/>
      <point x="1098" y="58" type="line"/>
      <point x="778" y="360" type="line"/>
    </contour>
    <contour>
      <point x="277" y="1306"/>
      <point x="103" y="1211"/>
      <point x="103" y="1013" type="curve" smooth="yes"/>
      <point x="103" y="878"/>
      <point x="199" y="767"/>
      <point x="395" y="708" type="curve"/>
      <point x="525" y="774" type="line"/>
      <point x="513" y="778" type="line"/>
      <point x="448" y="807"/>
      <point x="322" y="872"/>
      <point x="322" y="975" type="curve" smooth="yes"/>
      <point x="322" y="1072"/>
      <point x="387" y="1119"/>
      <point x="501" y="1119" type="curve" smooth="yes"/>
      <point x="574" y="1119"/>
      <point x="664" y="1107"/>
      <point x="723" y="1086" type="curve"/>
      <point x="761" y="1266" type="line"/>
      <point x="680" y="1291"/>
      <point x="581" y="1306"/>
      <point x="491" y="1306" type="curve" smooth="yes"/>
    </contour>
  </outline>
</glyph>
<glyph name="abbreviation-deva" format="1">
  <advance width="966"/>
  <unicode hex="0970"/>
  <outline>
    <contour>
      <point x="384" y="411"/>
      <point x="329" y="453"/>
      <point x="330" y="566" type="curve" smooth="yes"/>
      <point x="329" y="690"/>
      <point x="395" y="728"/>
      <point x="485" y="728" type="curve" smooth="yes"/>
      <point x="582" y="728"/>
      <point x="637" y="685"/>
      <point x="637" y="573" type="curve" smooth="yes"/>
      <point x="637" y="450"/>
      <point x="571" y="411"/>
      <point x="480" y="411" type="curve"/>
    </contour>
    <contour>
      <point x="321" y="896"/>
      <point x="139" y="825"/>
      <point x="139" y="587" type="curve" smooth="yes"/>
      <point x="139" y="378"/>
      <point x="272" y="244"/>
      <point x="486" y="244" type="curve" smooth="yes"/>
      <point x="646" y="244"/>
      <point x="828" y="315"/>
      <point x="828" y="552" type="curve" smooth="yes"/>
      <point x="828" y="761"/>
      <point x="695" y="896"/>
      <point x="480" y="896" type="curve" smooth="yes"/>
    </contour>
  </outline>
</glyph>
<glyph name="d_bha-deva" format="1">
  <advance width="1406"/>
  <outline>
    <contour>
      <point x="-28" y="262"/>
      <point x="-63" y="233"/>
      <point x="-98" y="193" type="curve"/>
      <point x="2" y="62" type="line"/>
      <point x="29" y="86"/>
      <point x="55" y="107"/>
      <point x="77" y="121" type="curve" smooth="yes"/>
      <point x="126" y="153"/>
      <point x="151" y="147"/>
      <point x="192" y="76" type="curve" smooth="yes"/>
      <point x="386" y="-260" type="line"/>
      <point x="541" y="-167" type="line"/>
      <point x="346" y="165" type="line" smooth="yes"/>
      <point x="278" y="283"/>
      <point x="192" y="392"/>
      <point x="15" y="287" type="curve" smooth="yes"/>
    </contour>
    <contour>
      <point x="368" y="-140" type="line"/>
      <point x="217" y="-253" type="line"/>
      <point x="288" y="-379" type="line"/>
      <point x="544" y="-455" type="line"/>
      <point x="645" y="-392"/>
      <point x="627" y="-325"/>
      <point x="588" y="-256" type="curve" smooth="yes"/>
      <point x="484" y="-71" type="line"/>
    </contour>
    <contour>
      <point x="338" y="-171" type="line"/>
      <point x="422" y="-294" type="line"/>
      <point x="1101" y="85" type="line"/>
      <point x="1014" y="203" type="line"/>
    </contour>
    <contour>
      <point x="988" y="1134" type="line"/>
      <point x="988" y="840" type="line"/>
      <point x="1129" y="870" type="line"/>
      <point x="1041" y="899"/>
      <point x="971" y="908"/>
      <point x="917" y="908" type="curve" smooth="yes"/>
      <point x="574" y="908"/>
      <point x="436" y="745"/>
      <point x="436" y="502" type="curve" smooth="yes"/>
      <point x="436" y="248"/>
      <point x="591" y="55"/>
      <point x="922" y="55" type="curve" smooth="yes"/>
      <point x="1037" y="55"/>
      <point x="1142" y="78"/>
      <point x="1227" y="134" type="curve" smooth="yes"/>
      <point x="1285" y="174"/>
      <point x="1326" y="259"/>
      <point x="1326" y="323" type="curve" smooth="yes"/>
      <point x="1326" y="432"/>
      <point x="1221" y="508"/>
      <point x="1107" y="537" type="curve"/>
      <point x="992" y="450" type="line"/>
      <point x="1095" y="231" type="line"/>
      <point x="1173" y="326" type="line"/>
      <point x="1074" y="260"/>
      <point x="1027" y="233"/>
      <point x="913" y="233" type="curve" smooth="yes"/>
      <point x="741" y="233"/>
      <point x="654" y="296"/>
      <point x="654" y="474" type="curve" smooth="yes"/>
      <point x="654" y="681"/>
      <point x="770" y="721"/>
      <point x="975" y="721" type="curve" smooth="yes"/>
      <point x="1083" y="721"/>
      <point x="1136" y="717"/>
      <point x="1199" y="713" type="curve"/>
      <point x="1199" y="1134" type="line"/>
    </contour>
    <contour>
      <point x="1102" y="216" type="line"/>
      <point x="1293" y="-171" type="line"/>
      <point x="1458" y="-73" type="line"/>
      <point x="1226" y="272" type="line"/>
    </contour>
    <contour>
      <point x="-20" y="1287" type="line"/>
      <point x="-20" y="1104" type="line"/>
      <point x="1426" y="1104" type="line"/>
      <point x="1426" y="1287" type="line"/>
    </contour>
    <contour>
      <point x="1093" y="1167" type="move" name="top"/>
    </contour>
    <contour>
      <point x="1277" y="-89" type="move" name="bottom"/>
    </contour>
  </outline>
</glyph>
<glyph name="dd_ya-deva" format="1">
  <advance width="2305"/>
  <outline>
    <contour>
      <point x="1147" y="936"/>
      <point x="903" y="746"/>
      <point x="826" y="446" type="curve"/>
      <point x="954" y="311" type="line"/>
      <point x="983" y="493"/>
      <point x="1151" y="764"/>
      <point x="1333" y="764" type="curve" smooth="yes"/>
      <point x="1388" y="764"/>
      <point x="1430" y="748"/>
      <point x="1430" y="710" type="curve" smooth="yes"/>
      <point x="1430" y="661"/>
      <point x="1358" y="620"/>
      <point x="1172" y="575" type="curve"/>
      <point x="1224" y="289"/>
      <point x="1396" y="127"/>
      <point x="1644" y="127" type="curve" smooth="yes"/>
      <point x="1775" y="127"/>
      <point x="1866" y="173"/>
      <point x="1947" y="257" type="curve"/>
      <point x="1959" y="513" type="line"/>
      <point x="1875" y="376"/>
      <point x="1747" y="319"/>
      <point x="1627" y="319" type="curve" smooth="yes"/>
      <point x="1503" y="319"/>
      <point x="1407" y="380"/>
      <point x="1371" y="526" type="curve"/>
      <point x="1354" y="448" type="line"/>
      <point x="1462" y="484"/>
      <point x="1622" y="550"/>
      <point x="1622" y="727" type="curve" smooth="yes"/>
      <point x="1622" y="880"/>
      <point x="1505" y="936"/>
      <point x="1369" y="936" type="curve" smooth="yes"/>
    </contour>
    <contour>
      <point x="1919" y="1131" type="line"/>
      <point x="1919" y="0" type="line"/>
      <point x="2129" y="0" type="line"/>
      <point x="2129" y="1131" type="line"/>
    </contour>
    <contour>
      <point x="1012" y="1287" type="line"/>
      <point x="1012" y="1104" type="line"/>
      <point x="2324" y="1104" type="line"/>
      <point x="2324" y="1287" type="line"/>
    </contour>
    <component base="dda-deva" xOffset="1"/>
    <contour>
      <point x="2024" y="1167" type="move" name="top"/>
    </contour>
    <contour>
      <point x="2024" y="27" type="move" name="bottom"/>
    </contour>
    <contour>
      <point x="1201" y="1167" type="move" name="topcandrabindu"/>
    </contour>
  </outline>
</glyph>
<glyph name="f-deva" format="1">
  <advance width="1197"/>
  <outline>
    <component base="ph-deva"/>
    <component base="nukta-deva" xOffset="154" yOffset="62"/>
    <contour>
      <point x="57" y="106" type="move" name="top"/>
    </contour>
    <contour>
      <point x="57" y="3" type="move" name="bottom"/>
    </contour>
  </outline>
</glyph>
<glyph name="g_la-deva.loclMAR" format="1">
  <advance width="1198"/>
  <outline>
    <contour>
      <point x="788" y="1238" type="line"/>
      <point x="788" y="11" type="line"/>
      <point x="998" y="11" type="line"/>
      <point x="998" y="1238" type="line"/>
    </contour>
    <contour>
      <point x="299" y="729" type="line"/>
      <point x="111" y="706" type="line"/>
      <point x="111" y="563" type="line"/>
      <point x="296" y="357" type="line"/>
      <point x="436" y="358"/>
      <point x="464" y="424"/>
      <point x="464" y="506" type="curve" smooth="yes"/>
      <point x="464" y="729" type="line"/>
    </contour>
    <contour>
      <point x="255" y="1176" type="line"/>
      <point x="255" y="465" type="line"/>
      <point x="465" y="653" type="line"/>
      <point x="465" y="1176" type="line"/>
    </contour>
    <contour>
      <point x="-19" y="1287" type="line"/>
      <point x="-19" y="1104" type="line"/>
      <point x="1217" y="1104" type="line"/>
      <point x="1217" y="1287" type="line"/>
    </contour>
    <component base="add" xOffset="58"/>
    <contour>
      <point x="893" y="1167" type="move" name="top"/>
    </contour>
    <contour>
      <point x="841" y="-479" type="move" name="bottom"/>
    </contour>
    <contour>
      <point x="628" y="1167" type="move" name="topcandrabindu"/>
    </contour>
  </outline>
</glyph>
<glyph name="gh_la-deva.loclMAR" format="1">
  <advance width="1204"/>
  <outline>
    <contour>
      <point x="238" y="879"/>
      <point x="134" y="728"/>
      <point x="134" y="566" type="curve" smooth="yes"/>
      <point x="134" y="398"/>
      <point x="261" y="273"/>
      <point x="494" y="273" type="curve" smooth="yes"/>
      <point x="693" y="273"/>
      <point x="844" y="350"/>
      <point x="935" y="426" type="curve"/>
      <point x="905" y="663" type="line"/>
      <point x="820" y="540"/>
      <point x="668" y="453"/>
      <point x="510" y="453" type="curve" smooth="yes"/>
      <point x="400" y="453"/>
      <point x="348" y="482"/>
      <point x="348" y="578" type="curve" smooth="yes"/>
      <point x="348" y="670"/>
      <point x="424" y="699"/>
      <point x="582" y="713" type="curve"/>
      <point x="574" y="882" type="line"/>
    </contour>
    <contour>
      <point x="323" y="1227"/>
      <point x="86" y="1191"/>
      <point x="86" y="1003" type="curve" smooth="yes"/>
      <point x="86" y="902"/>
      <point x="159" y="789"/>
      <point x="386" y="720" type="curve"/>
      <point x="484" y="797" type="line"/>
      <point x="406" y="809"/>
      <point x="298" y="885"/>
      <point x="298" y="969" type="curve" smooth="yes"/>
      <point x="298" y="1077"/>
      <point x="377" y="1105"/>
      <point x="500" y="1106" type="curve"/>
      <point x="517" y="1237" type="line"/>
    </contour>
    <contour>
      <point x="819" y="1199" type="line"/>
      <point x="819" y="9" type="line"/>
      <point x="1029" y="9" type="line"/>
      <point x="1029" y="1199" type="line"/>
    </contour>
    <contour>
      <point x="-19" y="1287" type="line"/>
      <point x="-19" y="1104" type="line"/>
      <point x="1223" y="1104" type="line"/>
      <point x="1223" y="1287" type="line"/>
    </contour>
    <component base="add" xOffset="57"/>
    <contour>
      <point x="927" y="1167" type="move" name="top"/>
    </contour>
    <contour>
      <point x="840" y="-479" type="move" name="bottom"/>
    </contour>
    <contour>
      <point x="657" y="1167" type="move" name="topcandrabindu"/>
    </contour>
  </outline>
</glyph>
<glyph name="iiMatra_reph_anusvara-deva.02" format="1">
  <advance width="551"/>
  <outline>
    <component base="iiMatra-deva.02"/>
    <component base="reph_anusvara-deva.imatra" xOffset="85"/>
    <contour>
      <point x="514" y="1674" type="move" name="top"/>
    </contour>
  </outline>
</glyph>
<glyph name="iiMatra_reph_anusvara-deva" format="1">
  <advance width="563"/>
  <outline>
    <component base="iiMatra-deva"/>
    <component base="reph_anusvara-deva" xOffset="77"/>
    <contour>
      <point x="490" y="1634" type="move" name="top"/>
    </contour>
  </outline>
</glyph>
<glyph name="ka_ra-deva.alt" format="1">
  <advance width="1517"/>
  <outline>
    <contour>
      <point x="1023" y="887"/>
      <point x="920" y="831"/>
      <point x="817" y="708" type="curve"/>
      <point x="817" y="404" type="line"/>
      <point x="981" y="634"/>
      <point x="1084" y="701"/>
      <point x="1152" y="701" type="curve" smooth="yes"/>
      <point x="1229" y="701"/>
      <point x="1274" y="658"/>
      <point x="1273" y="568" type="curve" smooth="yes"/>
      <point x="1272" y="462"/>
      <point x="1217" y="360"/>
      <point x="1133" y="242" type="curve"/>
      <point x="1286" y="125" type="line"/>
      <point x="1397" y="244"/>
      <point x="1463" y="390"/>
      <point x="1463" y="547" type="curve" smooth="yes"/>
      <point x="1464" y="751"/>
      <point x="1354" y="887"/>
      <point x="1161" y="887" type="curve" smooth="yes"/>
    </contour>
    <contour>
      <point x="150" y="225" type="line"/>
      <point x="276" y="74" type="line"/>
      <point x="772" y="470" type="line"/>
      <point x="715" y="635" type="line"/>
    </contour>
    <contour>
      <point x="211" y="949"/>
      <point x="124" y="899"/>
      <point x="53" y="844" type="curve"/>
      <point x="155" y="673" type="line"/>
      <point x="241" y="729"/>
      <point x="291" y="752"/>
      <point x="340" y="752" type="curve" smooth="yes"/>
      <point x="425" y="752"/>
      <point x="500" y="684"/>
      <point x="672" y="505" type="curve"/>
      <point x="773" y="599" type="line"/>
      <point x="527" y="919"/>
      <point x="422" y="949"/>
      <point x="311" y="949" type="curve" smooth="yes"/>
    </contour>
    <contour>
      <point x="669" y="1148" type="line"/>
      <point x="669" y="3" type="line"/>
      <point x="879" y="3" type="line"/>
      <point x="879" y="1148" type="line"/>
    </contour>
    <contour>
      <point x="-19" y="1287" type="line"/>
      <point x="-19" y="1104" type="line"/>
      <point x="1536" y="1104" type="line"/>
      <point x="1536" y="1287" type="line"/>
    </contour>
    <contour>
      <point x="774" y="1167" type="move" name="top"/>
    </contour>
    <contour>
      <point x="774" y="27" type="move" name="bottom"/>
    </contour>
    <contour>
      <point x="775" y="1167" type="move" name="topcandrabindu"/>
    </contour>
  </outline>
</glyph>
<glyph name="khh-deva" format="1">
  <advance width="1158"/>
  <outline>
    <component base="kh-deva"/>
    <component base="nukta-deva" xOffset="-102" yOffset="-3"/>
    <contour>
      <point x="49" y="106" type="move" name="top"/>
    </contour>
    <contour>
      <point x="49" y="3" type="move" name="bottom"/>
    </contour>
  </outline>
</glyph>
<glyph name="na_ra-deva" format="1">
  <advance width="1104"/>
  <outline>
    <contour>
      <point x="903" y="416" type="line"/>
      <point x="767" y="525" type="line"/>
      <point x="205" y="117" type="line"/>
      <point x="331" y="-33" type="line"/>
    </contour>
    <component base="na-deva"/>
    <contour>
      <point x="828" y="1167" type="move" name="top"/>
    </contour>
    <contour>
      <point x="828" y="27" type="move" name="bottom"/>
    </contour>
    <contour>
      <point x="552" y="1167" type="move" name="topcandrabindu"/>
    </contour>
  </outline>
</glyph>
<glyph name="ng_ka-deva" format="1">
  <advance width="1218"/>
  <outline>
    <contour>
      <point x="812" y="117"/>
      <point x="999" y="191"/>
      <point x="999" y="421" type="curve" smooth="yes"/>
      <point x="999" y="637"/>
      <point x="838" y="661"/>
      <point x="643" y="659" type="curve" smooth="yes"/>
      <point x="537" y="658"/>
      <point x="419" y="645"/>
      <point x="344" y="632" type="curve"/>
      <point x="363" y="619" type="line"/>
      <point x="356" y="621"/>
      <point x="339" y="671"/>
      <point x="339" y="715" type="curve" smooth="yes"/>
      <point x="339" y="778"/>
      <point x="366" y="794"/>
      <point x="486" y="794" type="curve" smooth="yes"/>
      <point x="812" y="794" type="line"/>
      <point x="789" y="972" type="line"/>
      <point x="430" y="972" type="line" smooth="yes"/>
      <point x="242" y="972"/>
      <point x="158" y="910"/>
      <point x="158" y="776" type="curve" smooth="yes"/>
      <point x="158" y="662"/>
      <point x="218" y="544"/>
      <point x="286" y="487" type="curve"/>
      <point x="320" y="459"/>
      <point x="345" y="457"/>
      <point x="365" y="459" type="curve" smooth="yes"/>
      <point x="431" y="465"/>
      <point x="564" y="481"/>
      <point x="675" y="481" type="curve" smooth="yes"/>
      <point x="786" y="481"/>
      <point x="805" y="459"/>
      <point x="805" y="399" type="curve" smooth="yes"/>
      <point x="805" y="326"/>
      <point x="747" y="290"/>
      <point x="586" y="290" type="curve" smooth="yes"/>
      <point x="385" y="290"/>
      <point x="299" y="337"/>
      <point x="182" y="455" type="curve"/>
      <point x="78" y="353" type="line"/>
      <point x="197" y="197"/>
      <point x="382" y="118"/>
      <point x="576" y="117" type="curve" smooth="yes"/>
    </contour>
    <contour>
      <point x="438" y="-540"/>
      <point x="565" y="-467"/>
      <point x="627" y="-363" type="curve"/>
      <point x="579" y="-245" type="line"/>
      <point x="519" y="-322"/>
      <point x="435" y="-375"/>
      <point x="344" y="-375" type="curve" smooth="yes"/>
      <point x="267" y="-375"/>
      <point x="222" y="-342"/>
      <point x="222" y="-260" type="curve" smooth="yes"/>
      <point x="222" y="-142"/>
      <point x="288" y="-119"/>
      <point x="365" y="-117" type="curve" smooth="yes"/>
      <point x="433" y="-114"/>
      <point x="526" y="-127"/>
      <point x="627" y="-179" type="curve"/>
      <point x="627" y="-78" type="line"/>
      <point x="572" y="-6"/>
      <point x="470" y="41"/>
      <point x="333" y="41" type="curve" smooth="yes"/>
      <point x="159" y="41"/>
      <point x="43" y="-58"/>
      <point x="43" y="-251" type="curve" smooth="yes"/>
      <point x="43" y="-375"/>
      <point x="107" y="-540"/>
      <point x="318" y="-540" type="curve" smooth="yes"/>
    </contour>
    <contour>
      <point x="729" y="-663" type="line"/>
      <point x="729" y="229" type="line"/>
      <point x="521" y="229" type="line"/>
      <point x="521" y="-663" type="line"/>
    </contour>
    <contour>
      <point x="1107" y="-463"/>
      <point x="1132" y="-329"/>
      <point x="1132" y="-246" type="curve" smooth="yes"/>
      <point x="1132" y="-75"/>
      <point x="1052" y="18"/>
      <point x="917" y="18" type="curve" smooth="yes"/>
      <point x="824" y="18"/>
      <point x="737" y="-21"/>
      <point x="657" y="-116" type="curve"/>
      <point x="657" y="-348" type="line"/>
      <point x="741" y="-224"/>
      <point x="807" y="-159"/>
      <point x="882" y="-159" type="curve" smooth="yes"/>
      <point x="936" y="-159"/>
      <point x="951" y="-202"/>
      <point x="951" y="-256" type="curve" smooth="yes"/>
      <point x="951" y="-306"/>
      <point x="934" y="-387"/>
      <point x="851" y="-483" type="curve"/>
      <point x="1001" y="-583" type="line"/>
    </contour>
    <contour>
      <point x="1140" y="605"/>
      <point x="1171" y="636"/>
      <point x="1171" y="708" type="curve" smooth="yes"/>
      <point x="1171" y="782"/>
      <point x="1140" y="813"/>
      <point x="1066" y="813" type="curve" smooth="yes"/>
      <point x="993" y="813"/>
      <point x="961" y="782"/>
      <point x="961" y="708" type="curve" smooth="yes"/>
      <point x="961" y="636"/>
      <point x="993" y="605"/>
      <point x="1066" y="605" type="curve" smooth="yes"/>
    </contour>
    <contour>
      <point x="922" y="815" type="line"/>
      <point x="922" y="1235" type="line"/>
      <point x="614" y="1235" type="line"/>
      <point x="614" y="815" type="line"/>
    </contour>
    <contour>
      <point x="1206" y="1082" type="line"/>
      <point x="1206" y="1283" type="line"/>
      <point x="51" y="1283" type="line"/>
      <point x="51" y="1082" type="line"/>
    </contour>
    <contour>
      <point x="787" y="1167" type="move" name="top"/>
    </contour>
    <contour>
      <point x="624" y="-599" type="move" name="bottom"/>
    </contour>
    <contour>
      <point x="604" y="1167" type="move" name="topcandrabindu"/>
    </contour>
  </outline>
</glyph>
<glyph name="pa_ra-deva" format="1">
  <advance width="1154"/>
  <outline>
    <contour>
      <point x="823" y="411" type="line"/>
      <point x="696" y="515" type="line"/>
      <point x="122" y="100" type="line"/>
      <point x="248" y="-51" type="line"/>
    </contour>
    <component base="pa-deva"/>
    <contour>
      <point x="879" y="1167" type="move" name="top"/>
    </contour>
    <contour>
      <point x="907" y="27" type="move" name="bottom"/>
    </contour>
  </outline>
</glyph>
<glyph name="rakar_uuMatra-deva" format="1">
  <advance width="600"/>
  <outline>
    <component base="rakar-deva" xOffset="2" yOffset="-2"/>
    <component base="uuMatra-deva" xOffset="5" yOffset="6"/>
    <contour>
      <point x="25" y="30" type="move" name="_top"/>
    </contour>
  </outline>
</glyph>
<glyph name="rr-deva" format="1">
  <advance width="749"/>
  <outline>
    <component base="rra-deva"/>
    <contour>
      <point x="28" y="106" type="move" name="top"/>
    </contour>
    <contour>
      <point x="28" y="3" type="move" name="bottom"/>
    </contour>
  </outline>
</glyph>
<glyph name="sh_la-deva" format="1">
  <advance width="2103"/>
  <outline>
    <contour>
      <point x="289" y="1319"/>
      <point x="155" y="1218"/>
      <point x="155" y="1035" type="curve" smooth="yes"/>
      <point x="155" y="933"/>
      <point x="195" y="834"/>
      <point x="343" y="731" type="curve"/>
      <point x="527" y="812" type="line"/>
      <point x="391" y="891"/>
      <point x="354" y="958"/>
      <point x="354" y="1023" type="curve" smooth="yes"/>
      <point x="354" y="1099"/>
      <point x="395" y="1145"/>
      <point x="503" y="1145" type="curve" smooth="yes"/>
      <point x="600" y="1145"/>
      <point x="644" y="1100"/>
      <point x="644" y="1023" type="curve" smooth="yes"/>
      <point x="644" y="943"/>
      <point x="595" y="886"/>
      <point x="451" y="797" type="curve"/>
      <point x="41" y="566" type="line"/>
      <point x="134" y="412" type="line" smooth="yes"/>
      <point x="596" y="685" type="line"/>
      <point x="748" y="775"/>
      <point x="851" y="878"/>
      <point x="851" y="1035" type="curve" smooth="yes"/>
      <point x="851" y="1228"/>
      <point x="710" y="1319"/>
      <point x="501" y="1319" type="curve" smooth="yes"/>
    </contour>
    <contour>
      <point x="854" y="716"/>
      <point x="741" y="591"/>
      <point x="741" y="373" type="curve" smooth="yes"/>
      <point x="741" y="110"/>
      <point x="884" y="-52"/>
      <point x="1027" y="-210" type="curve"/>
      <point x="1174" y="-83" type="line"/>
      <point x="1016" y="107"/>
      <point x="947" y="197"/>
      <point x="947" y="342" type="curve" smooth="yes"/>
      <point x="947" y="479"/>
      <point x="1016" y="519"/>
      <point x="1095" y="519" type="curve" smooth="yes"/>
      <point x="1199" y="519"/>
      <point x="1270" y="432"/>
      <point x="1347" y="310" type="curve"/>
      <point x="1366" y="447" type="line"/>
      <point x="1294" y="636"/>
      <point x="1191" y="716"/>
      <point x="1045" y="716" type="curve" smooth="yes"/>
    </contour>
    <contour>
      <point x="395" y="698" type="line"/>
      <point x="596" y="560"/>
      <point x="789" y="553"/>
      <point x="909" y="551" type="curve" smooth="yes"/>
      <point x="940" y="548"/>
      <point x="974" y="547"/>
      <point x="1009" y="549" type="curve"/>
      <point x="1041" y="715" type="line"/>
      <point x="1000" y="713"/>
      <point x="959" y="711"/>
      <point x="911" y="713" type="curve" smooth="yes"/>
      <point x="849" y="714"/>
      <point x="680" y="721"/>
      <point x="554" y="793" type="curve"/>
    </contour>
    <contour>
      <point x="1342" y="714"/>
      <point x="1233" y="550"/>
      <point x="1233" y="349" type="curve" smooth="yes"/>
      <point x="1233" y="304"/>
      <point x="1238" y="260"/>
      <point x="1253" y="221" type="curve"/>
      <point x="1434" y="240" type="line"/>
      <point x="1429" y="272"/>
      <point x="1426" y="302"/>
      <point x="1426" y="332" type="curve" smooth="yes"/>
      <point x="1426" y="442"/>
      <point x="1475" y="525"/>
      <point x="1574" y="525" type="curve" smooth="yes"/>
      <point x="1660" y="525"/>
      <point x="1721" y="476"/>
      <point x="1748" y="380" type="curve"/>
      <point x="1764" y="505" type="line"/>
      <point x="1747" y="644"/>
      <point x="1650" y="714"/>
      <point x="1536" y="714" type="curve" smooth="yes"/>
    </contour>
    <contour>
      <point x="1717" y="1171" type="line"/>
      <point x="1716" y="-177" type="line"/>
      <point x="1926" y="-177" type="line"/>
      <point x="1927" y="1171" type="line"/>
    </contour>
    <contour>
      <point x="905" y="1287" type="line"/>
      <point x="905" y="1104" type="line"/>
      <point x="2173" y="1104" type="line"/>
      <point x="2173" y="1287" type="line"/>
    </contour>
    <contour>
      <point x="1822" y="1167" type="move" name="top"/>
    </contour>
    <contour>
      <point x="1820" y="-148" type="move" name="bottom"/>
    </contour>
    <contour>
      <point x="1251" y="1167" type="move" name="topcandrabindu"/>
    </contour>
  </outline>
</glyph>
<glyph name="sha-deva.loclMAR" format="1">
  <advance width="1401"/>
  <outline>
    <contour>
      <point x="1015" y="1208" type="line"/>
      <point x="1015" y="0" type="line"/>
      <point x="1225" y="0" type="line"/>
      <point x="1225" y="1208" type="line"/>
    </contour>
    <contour>
      <point x="821" y="1287" type="line"/>
      <point x="821" y="1104" type="line"/>
      <point x="1420" y="1104" type="line"/>
      <point x="1420" y="1287" type="line"/>
    </contour>
    <component base="sh-deva.loclMAR"/>
    <contour>
      <point x="252" y="-274" type="move" name="nukta"/>
    </contour>
    <contour>
      <point x="1121" y="1167" type="move" name="top"/>
    </contour>
    <contour>
      <point x="731" y="1167" type="move" name="topcandrabindu"/>
    </contour>
    <contour>
      <point x="1121" y="27" type="move" name="bottom"/>
    </contour>
  </outline>
</glyph>
<glyph name="tth-deva" format="1">
  <advance width="1177"/>
  <outline>
    <component base="ttha-deva"/>
    <component base="halant-deva" xOffset="485" yOffset="8"/>
    <contour>
      <point x="53" y="106" type="move" name="top"/>
    </contour>
    <contour>
      <point x="53" y="3" type="move" name="bottom"/>
    </contour>
  </outline>
</glyph>
<glyph name="va_ra-deva" format="1">
  <advance width="1091"/>
  <outline>
    <contour>
      <point x="806" y="345" type="line"/>
      <point x="725" y="452" type="line"/>
      <point x="117" y="79" type="line"/>
      <point x="237" y="-74" type="line"/>
    </contour>
    <component base="va-deva"/>
    <contour>
      <point x="815" y="1167" type="move" name="top"/>
    </contour>
    <contour>
      <point x="815" y="27" type="move" name="bottom"/>
    </contour>
  </outline>
</glyph>
<glyph name="ya-deva.post" format="1">
  <advance width="1186"/>
  <outline>
    <contour>
      <point x="33" y="936"/>
      <point x="-124" y="875"/>
      <point x="-280" y="794" type="curve"/>
      <point x="-223" y="617" type="line"/>
      <point x="-108" y="689"/>
      <point x="84" y="764"/>
      <point x="212" y="764" type="curve" smooth="yes"/>
      <point x="268" y="764"/>
      <point x="311" y="748"/>
      <point x="311" y="710" type="curve" smooth="yes"/>
      <point x="311" y="661"/>
      <point x="239" y="620"/>
      <point x="54" y="575" type="curve"/>
      <point x="105" y="289"/>
      <point x="277" y="127"/>
      <point x="525" y="127" type="curve" smooth="yes"/>
      <point x="654" y="127"/>
      <point x="747" y="173"/>
      <point x="828" y="257" type="curve"/>
      <point x="840" y="513" type="line"/>
      <point x="756" y="376"/>
      <point x="628" y="319"/>
      <point x="508" y="319" type="curve" smooth="yes"/>
      <point x="384" y="319"/>
      <point x="288" y="380"/>
      <point x="252" y="526" type="curve"/>
      <point x="235" y="448" type="line"/>
      <point x="343" y="484"/>
      <point x="503" y="550"/>
      <point x="503" y="727" type="curve" smooth="yes"/>
      <point x="503" y="880"/>
      <point x="386" y="936"/>
      <point x="213" y="936" type="curve" smooth="yes"/>
    </contour>
    <contour>
      <point x="801" y="1131" type="line"/>
      <point x="801" y="0" type="line"/>
      <point x="1011" y="0" type="line"/>
      <point x="1011" y="1131" type="line"/>
    </contour>
    <contour>
      <point x="-26" y="1287" type="line"/>
      <point x="-26" y="1104" type="line"/>
      <point x="1205" y="1104" type="line"/>
      <point x="1205" y="1287" type="line"/>
    </contour>
    <contour>
      <point x="906" y="1167" type="move" name="top"/>
    </contour>
    <contour>
      <point x="79" y="3" type="move" name="bottom"/>
    </contour>
  </outline>
</glyph>
